<svg id="Capa_1" enable-background="new 0 0 512 512" height="512" viewBox="0 0 512 512" width="512" xmlns="http://www.w3.org/2000/svg"><g><g><path d="m266.612 139.312-127.3 127.3c-5.836 5.836-15.351 5.873-21.223 0l-93.215-93.214c-33.165-33.175-33.165-87.143 0-120.319l28.204-28.204c33.175-33.165 87.144-33.165 120.319 0l93.215 93.215c5.853 5.873 5.851 15.349 0 21.222z" fill="#f89580"/></g><g><path d="m487.126 458.922-28.204 28.204c-16.593 16.583-38.376 24.874-60.16 24.874-21.783 0-43.567-8.291-60.159-24.874l-93.215-93.215c-5.853-5.874-5.851-15.351 0-21.223l127.3-127.3c5.861-5.851 15.363-5.851 21.223 0l93.215 93.215c33.165 33.175 33.165 87.144 0 120.319z" fill="#e87d6b"/></g><g><path d="m487.126 173.397-313.729 313.729c-16.592 16.583-38.376 24.874-60.159 24.874s-43.567-8.291-60.159-24.874l-28.204-28.204c-33.165-33.175-33.165-87.144 0-120.319l313.728-313.729c33.175-33.165 87.143-33.165 120.319 0l28.204 28.204c33.165 33.176 33.165 87.144 0 120.319z" fill="#ffbfab"/></g><path d="m487.126 173.397-231.126 231.126v-297.046l82.603-82.603c33.175-33.165 87.143-33.165 120.319 0l28.204 28.204c33.165 33.176 33.165 87.144 0 120.319z" fill="#f89580"/><g><circle cx="70.804" cy="398.763" fill="#edf5ff" r="15.002"/></g><g><circle cx="113.237" cy="441.196" fill="#edf5ff" r="15.002"/></g><g><circle cx="113.237" cy="356.33" fill="#edf5ff" r="15.002"/></g><g><circle cx="155.67" cy="398.763" fill="#edf5ff" r="15.002"/></g><g><circle cx="398.763" cy="70.804" fill="#d5e8fe" r="15.002"/></g><g><circle cx="441.196" cy="113.237" fill="#d5e8fe" r="15.002"/></g><g><circle cx="356.33" cy="113.237" fill="#d5e8fe" r="15.002"/></g><g><circle cx="398.763" cy="155.67" fill="#d5e8fe" r="15.002"/></g><g><circle cx="441.196" cy="398.763" fill="#d5e8fe" r="15.002"/></g><g><circle cx="398.763" cy="441.196" fill="#d5e8fe" r="15.002"/></g><g><circle cx="398.763" cy="356.33" fill="#d5e8fe" r="15.002"/></g><g><circle cx="356.33" cy="398.763" fill="#d5e8fe" r="15.002"/></g><g><circle cx="113.237" cy="70.804" fill="#edf5ff" r="15.002"/></g><g><circle cx="70.804" cy="113.237" fill="#edf5ff" r="15.002"/></g><g><circle cx="155.67" cy="113.237" fill="#edf5ff" r="15.002"/></g><g><circle cx="113.237" cy="155.67" fill="#edf5ff" r="15.002"/></g><g><path d="m329.041 246.608-82.433 82.433c-5.859 5.859-15.347 5.876-21.223 0l-42.427-42.427c-5.871-5.871-5.861-15.363 0-21.223l82.433-82.433c5.861-5.861 15.362-5.861 21.223 0l42.427 42.427c5.871 5.871 5.861 15.363 0 21.223z" fill="#edf5ff"/></g><path d="m329.041 246.608-73.041 73.042v-127.3l9.391-9.391c5.861-5.861 15.362-5.861 21.223 0l42.427 42.427c5.871 5.87 5.861 15.362 0 21.222z" fill="#d5e8fe"/></g></svg>