<svg id="Capa_1" fill="#0ff" enable-background="new 0 0 512 512" height="512" viewBox="0 0 512 512" width="512" xmlns="http://www.w3.org/2000/svg"><g><path d="m133.311 215.547c9.323 4.04 19.166 5.866 29.257 5.428 7.709-.349 14.991 2.827 20.017 8.676 6.584 7.662 14.648 13.596 23.971 17.637 8.506 3.686 17.455 5.529 26.411 5.528 8.761 0 17.527-1.765 25.883-5.296 16.904-7.146 29.807-20.562 36.328-37.779 8.866-23.404 3.524-49.821-12.807-68.071l58.217-119.914c2.255-4.645 1.962-10.122-.773-14.5-2.736-4.379-7.532-7.042-12.695-7.051l-119.24-.205c-.009 0-.017 0-.025 0-5.924 0-11.295 3.487-13.704 8.901l-35.166 79.02c-24.713.343-47.909 14.58-58.98 37.272-8.069 16.54-9.008 35.133-2.645 52.354 6.36 17.215 19.129 30.709 35.951 38zm-6.344-77.199c7.042-14.437 23.05-22.628 38.925-19.927 6.755 1.146 13.435-2.425 16.223-8.688l35.475-79.716 85.567.146-52.608 108.362c-3.123 6.434-1.27 14.179 4.429 18.501 12.847 9.746 17.841 27.053 12.145 42.087-3.589 9.474-10.675 16.852-19.953 20.772-9.27 3.92-19.458 3.873-28.685-.125-5.122-2.221-9.546-5.472-13.147-9.663-10.529-12.253-25.59-19.148-41.632-19.148-.811 0-1.625.018-2.439.053-5.518.249-10.906-.764-16.026-2.982-9.235-4.002-16.245-11.414-19.74-20.871-3.499-9.465-2.978-19.694 1.466-28.801z"/><path d="m310.108 331.256c-1.605-18.345-10.383-34.767-24.716-46.239-14.319-11.462-32.214-16.439-50.379-13.991-10.068 1.353-19.441 4.869-27.86 10.454-6.419 4.26-14.296 5.316-21.611 2.901-9.593-3.167-19.564-4.088-29.629-2.734-18.167 2.439-34.116 11.951-44.911 26.784-10.806 14.846-14.95 32.999-11.671 51.117 4.491 24.814 22.909 44.803 46.552 51.878l11.923 87.598c1.013 7.436 7.362 12.977 14.862 12.977h.039 114.679c4.542-.012 8.834-2.08 11.672-5.626 2.838-3.545 3.917-8.186 2.935-12.62l-22.263-100.736c20.416-13.181 32.544-36.995 30.378-61.763zm-52.988 39.808c-6.877 2.696-10.768 9.999-9.169 17.211l20.719 93.773-82.909-.081-11.582-85.095c-.931-6.836-6.404-12.156-13.265-12.892-16.016-1.716-29.2-13.961-32.064-29.775-1.805-9.978.47-19.964 6.407-28.121 5.927-8.145 14.681-13.366 24.648-14.705 1.652-.222 3.3-.332 4.937-.332 3.837 0 7.619.608 11.293 1.821 16.114 5.322 33.463 2.99 47.603-6.39 4.602-3.053 9.739-4.977 15.269-5.721 9.965-1.342 19.78 1.39 27.639 7.68 7.871 6.301 12.693 15.333 13.576 25.433 1.401 16.017-8.099 31.311-23.102 37.194z"/><path d="m403.814 241h-22.759c-8.284 0-15 6.716-15 15s6.716 15 15 15h22.759c8.284 0 15-6.716 15-15s-6.716-15-15-15z"/><path d="m364.996 297.347c-5.859-5.859-15.357-5.857-21.214 0s-5.858 15.354 0 21.213l16.093 16.094c2.929 2.93 6.768 4.394 10.606 4.394 3.839 0 7.678-1.465 10.607-4.394 5.857-5.857 5.858-15.354 0-21.213z"/><path d="m343.782 214.653c2.929 2.93 6.768 4.394 10.607 4.394s7.678-1.465 10.607-4.394l16.092-16.094c5.858-5.858 5.857-15.355 0-21.213-5.857-5.859-15.355-5.857-21.213 0l-16.093 16.094c-5.858 5.859-5.858 15.356 0 21.213z"/></g></svg>