<svg id="Capa_1" fill="#00f"  enable-background="new 0 0 512 512" height="512" viewBox="0 0 512 512" width="512" xmlns="http://www.w3.org/2000/svg"><g><path d="m336.818 414.102c-4.108-.685-7.968 2.105-8.642 6.202l-12.588 76.652h-32.579v-117.883c25.231-16.515 28.729-36.845 28.489-47.791-.327-14.904-7.721-29.132-17.98-34.598-9.284-4.95-19.778-2.759-29.927-.642-10.308 2.15-20.967 4.374-32.099.476-13.585-4.753-27.288-2.723-37.595 5.574-10.483 8.439-15.69 22.099-13.928 36.538 1.366 11.194 8.282 21.968 20.57 32.065v126.262h-43.195l-1.268-169.51c-.167-22.354-18.491-40.54-40.845-40.54h-100.188v-53.772h47.218c4.154 0 7.522-3.367 7.522-7.522s-3.368-7.522-7.522-7.522h-47.218v-58.867h135.092c2.85 0 5.456-1.611 6.729-4.161 5.387-10.788 13.792-16.258 24.981-16.258 14.57 0 18.668 13.127 22.344 42.551.757 6.059 1.472 11.783 2.531 17.11.814 4.099 2.259 8.944 3.789 14.073 6.171 20.693 10.385 38.212-.592 42.989-9.232 4.015-28.101-2.964-53.375-34.608-1.427-1.787-3.59-2.827-5.877-2.827h-58.346c-4.154 0-7.522 3.367-7.522 7.522s3.368 7.522 7.522 7.522h54.764c13.536 16.396 35.813 38.581 57.234 38.581 3.915 0 7.802-.741 11.602-2.395 7.55-3.286 16.419-10.977 15.789-28.962-.371-10.611-3.778-22.038-6.784-32.12-1.426-4.781-2.773-9.298-3.45-12.705-.953-4.797-1.635-10.259-2.358-16.042-2.938-23.519-6.962-55.729-37.271-55.729-15.332 0-28.005 7.209-36.13 20.419h-130.672v-77.47l173 19.29c4.125.463 7.848-2.514 8.309-6.642.46-4.128-2.513-7.849-6.642-8.309l-181.355-20.224c-2.123-.233-4.254.443-5.849 1.87s-2.506 3.466-2.506 5.606v236.124c0 4.155 3.368 7.522 7.522 7.522h107.71c14.122 0 25.696 11.489 25.802 25.61l1.324 176.974c.031 4.132 3.39 7.466 7.522 7.466h172.096c3.684 0 6.825-2.668 7.422-6.302l13.623-82.954c.673-4.101-2.104-7.97-6.203-8.643zm-121.235 82.855v-129.903c0-2.349-1.097-4.562-2.966-5.985-7.42-5.648-16.517-14.442-17.715-24.261-1.128-9.244 2.022-17.842 8.428-22.999 6.26-5.038 14.496-6.136 23.192-3.093 15.079 5.278 28.974 2.381 40.14.051 8.215-1.713 15.309-3.191 19.78-.809v.001c3.893 2.074 9.768 10.391 10.015 21.653.397 18.082-13.265 29.996-24.796 36.806-2.291 1.354-3.696 3.816-3.696 6.477v122.062z"/><path d="m244.893 77.204-25.355-2.827c-4.122-.452-7.848 2.514-8.309 6.642s2.513 7.849 6.642 8.309l25.355 2.827c29.972 3.342 57.283 17.795 76.902 40.699 19.618 22.903 29.707 52.11 28.406 82.239l-4.757 110.213-10.728 65.329c-.674 4.1 2.104 7.968 6.202 8.641.413.069.824.101 1.228.101 3.618 0 6.808-2.617 7.413-6.303l10.802-65.774c.049-.297.08-.595.093-.895l4.777-110.664c1.465-33.952-9.903-66.865-32.011-92.674s-52.885-42.096-86.66-45.863z"/><path d="m311.509 205.099c0-27.156-14.558-48.429-33.144-48.429s-33.145 21.273-33.145 48.429 14.559 48.428 33.145 48.428c18.585 0 33.144-21.272 33.144-48.428zm-51.246 0c0-19.675 9.54-33.386 18.102-33.386s18.101 13.711 18.101 33.386-9.539 33.385-18.101 33.385-18.102-13.711-18.102-33.385z"/><path d="m395.72 198.069 80.142-34.062c4.974-1.942 6.158-9.076 2.08-12.521l-13.683-12.275 43.451-20.694c4.66-2.061 5.751-8.774 1.986-12.206l-38.892-37.495c-2.967-2.862-7.683-2.8-10.575.133l-58.476 59.29c-3.091 2.998-2.798 8.457.596 11.106l10.777 8.807-26.553 38.743c-4.341 5.897 2.554 14.254 9.147 11.174zm32.278-57.193-9.735-7.954 47.454-48.116 25.721 24.798-43.838 20.878c-4.762 2.103-5.762 9.027-1.788 12.39l13.282 11.916-45.547 19.358 15.896-23.194c2.21-3.223 1.582-7.603-1.445-10.076z"/><path d="m400.362 47.517c-1.462-2.116-3.91-3.35-6.475-3.24l-12.788.489 12.906-34.614c1.911-4.715-1.964-10.292-7.048-10.149h-43.851c-4.127 0-7.483 3.326-7.522 7.453l-.614 67.693c-.133 4.304 3.873 8.02 8.155 7.564l9.96-.842 6.178 36.301c.995 7.235 11.699 8.5 14.344 1.664l27.494-65.117c1.003-2.37.723-5.086-.739-7.202zm-30.589 42.731-3.016-17.717c-.62-3.641-3.777-6.26-7.408-6.26-.212 0-.426.009-.64.026l-8.62.73.472-51.981h25.565l-13.065 35.039c-1.961 4.819 2.15 10.5 7.335 10.143l12.249-.468z"/><path d="m504.544 222.051-67.693-.613c-4.302-.133-8.021 3.873-7.564 8.155l.842 9.96-36.301 6.177c-7.245.991-8.486 11.722-1.664 14.344l65.117 27.494c4.844 2.223 10.808-1.889 10.441-7.217l-.489-12.787 34.613 12.906c4.715 1.912 10.292-1.965 10.149-7.048v-43.851c.002-4.126-3.324-7.483-7.451-7.52zm-7.59 40.54-35.039-13.065c-4.825-1.961-10.492 2.143-10.143 7.335l.468 12.248-30.486-12.872 17.715-3.015c3.854-.655 6.563-4.153 6.234-8.048l-.729-8.62 51.98.471z"/></g></svg>