<?xml version="1.0" encoding="iso-8859-1"?>
<!-- Generator: Adobe Illustrator 19.0.0, SVG Export Plug-In . SVG Version: 6.00 Build 0)  -->
<svg version="1.1" fill="#00f"  id="Capa_1" xmlns="http://www.w3.org/2000/svg" xmlns:xlink="http://www.w3.org/1999/xlink" x="0px" y="0px"
	 viewBox="0 0 512 512" style="enable-background:new 0 0 512 512;" xml:space="preserve">
<g>
	<g>
		<g>
			<path d="M358.4,364.462h-8.533c-29.733,0-59.733,10.558-59.733,34.133c0,14.175,13.233,34.133,42.667,34.133
				c19.957,0,24.529-31.134,25.406-51.2h0.194c4.713,0,8.533-3.82,8.533-8.533S363.113,364.462,358.4,364.462z M332.7,415.662
				c-21.167-0.042-25.5-13.467-25.5-17.067c0-8.2,14.542-15.075,33.858-16.7C340,399.387,336.058,413.878,332.7,415.662z"/>
			<circle cx="204.8" cy="210.862" r="8.533"/>
			<circle cx="221.867" cy="236.462" r="8.533"/>
			<circle cx="230.4" cy="270.595" r="8.533"/>
			<circle cx="238.933" cy="304.729" r="8.533"/>
			<circle cx="307.2" cy="210.862" r="8.533"/>
			<circle cx="290.133" cy="236.462" r="8.533"/>
			<circle cx="281.6" cy="270.595" r="8.533"/>
			<circle cx="273.067" cy="304.729" r="8.533"/>
			<path d="M505.636,336.886c-3.976-2.562-8.983-2.922-13.286-0.957c-4.561,2.005-9.501,3.006-14.483,2.933
				c-4.619,0.294-9.141-1.416-12.409-4.694s-4.965-7.805-4.657-12.423c-0.001-0.166-0.071-0.314-0.082-0.479
				c-0.037-0.63-0.144-1.253-0.319-1.859c-0.079-0.269-0.171-0.533-0.277-0.792c-0.084-0.21-0.12-0.433-0.222-0.637
				c-4.172-7.918-11.104-14.031-19.482-17.181c5.494-7.939,11.56-16.176,18.515-24.869C486.9,240.962,512,204.453,512,142.595
				c0-47.375-29.425-76.8-76.8-76.8c-49.19-2.033-93.277,30.145-106.338,77.613c-7.424,0.877-14.705,2.706-21.662,5.44v-6.952
				c8.563-1.049,16.611-4.65,23.1-10.335c3.276-3.289,3.299-8.601,0.05-11.917c-3.27-3.341-8.611-3.452-12.017-0.25
				c-3.228,2.621-7.052,4.407-11.133,5.201V73.63c8.563-1.049,16.611-4.65,23.1-10.335c3.276-3.289,3.299-8.601,0.05-11.917
				c-3.271-3.336-8.609-3.448-12.017-0.25c-3.228,2.621-7.052,4.407-11.133,5.201V23.495c0.02-6.436-2.936-12.521-8.008-16.483
				c-5.162-4.047-11.899-5.492-18.267-3.917c-16.381,3.933-33.461,3.933-49.842,0c-6.37-1.574-13.11-0.129-18.275,3.917
				c-5.072,3.963-8.028,10.047-8.008,16.483v32.835c-4.036-0.785-7.821-2.536-11.034-5.102c-3.341-3.281-8.701-3.256-12.012,0.054
				c-3.311,3.311-3.335,8.671-0.054,12.012c6.488,5.685,14.537,9.286,23.1,10.335v50.967c-4.036-0.785-7.821-2.536-11.034-5.102
				c-3.34-3.288-8.706-3.267-12.019,0.047s-3.335,8.68-0.047,12.019c6.488,5.685,14.537,9.286,23.1,10.335v6.952
				c-6.958-2.734-14.238-4.563-21.662-5.44C170.077,95.94,125.99,63.762,76.8,65.795c-47.375,0-76.8,29.425-76.8,76.8
				c0,61.858,25.1,98.367,53.067,133.333c6.955,8.693,13.021,16.93,18.515,24.869c-8.378,3.149-15.309,9.262-19.482,17.181
				c-0.106,0.213-0.144,0.444-0.231,0.661c-0.106,0.26-0.198,0.525-0.277,0.794c-0.177,0.62-0.283,1.259-0.316,1.904
				c-0.008,0.157-0.076,0.299-0.076,0.458c0.297,4.611-1.405,9.127-4.673,12.394c-3.267,3.267-7.783,4.97-12.394,4.673
				c-4.98,0.073-9.917-0.927-14.475-2.933c-4.303-1.967-9.312-1.607-13.29,0.954C2.39,339.445-0.01,343.855,0,348.587v135.342
				c0.015,14.132,11.468,25.585,25.6,25.6h34.133c14.132-0.015,25.585-11.468,25.6-25.6v-25.6
				c0.854-22.498,6.91-44.491,17.692-64.255c2.286,32.697,13.387,81.322,67.642,81.322c36.238-0.624,69.124-21.342,85.333-53.758
				c16.209,32.417,49.095,53.134,85.333,53.758c54.255,0,65.356-48.625,67.642-81.322c10.782,19.764,16.837,41.758,17.692,64.255
				v25.6c0.015,14.132,11.468,25.585,25.6,25.6H486.4c14.132-0.015,25.585-11.468,25.6-25.6V348.587
				C512.011,343.857,509.612,339.447,505.636,336.886z M221.866,23.495c-0.021-1.196,0.526-2.331,1.475-3.059v0
				c1.047-0.818,2.416-1.099,3.7-0.758c19.036,4.583,38.889,4.583,57.925,0c1.282-0.33,2.644-0.05,3.692,0.758
				c0.949,0.728,1.496,1.863,1.475,3.058v10.97c-0.318,0.116-0.586,0.219-0.936,0.341c-0.304,0.106-0.612,0.212-0.939,0.321
				c-1.209,0.404-2.541,0.824-4.05,1.249l-0.413,0.108c-1.391,0.385-2.932,0.764-4.553,1.13c-0.439,0.099-0.882,0.197-1.336,0.293
				c-1.869,0.396-3.836,0.773-5.965,1.094l-0.28,0.036c-2.001,0.296-4.145,0.531-6.354,0.723c-0.592,0.052-1.191,0.099-1.796,0.141
				c-2.408,0.169-4.892,0.292-7.511,0.292c-2.59,0-5.052-0.123-7.443-0.293c-0.607-0.043-1.206-0.091-1.798-0.143
				c-2.144-0.189-4.223-0.419-6.177-0.707l-0.452-0.058c-2.107-0.32-4.064-0.695-5.922-1.088c-0.466-0.098-0.919-0.199-1.368-0.301
				c-1.606-0.363-3.134-0.737-4.519-1.118l-0.448-0.117c-1.548-0.434-2.925-0.865-4.161-1.276l-0.718-0.243
				c-0.426-0.146-0.745-0.269-1.126-0.407V23.495z M221.866,52.42c0.157,0.046,0.362,0.09,0.522,0.137
				c0.951,0.276,2.048,0.535,3.093,0.807v0c1.189,0.309,2.307,0.618,3.612,0.912c1.284,0.29,2.726,0.532,4.116,0.796
				c1.266,0.24,2.448,0.499,3.799,0.71c1.756,0.274,3.679,0.461,5.57,0.67c1.156,0.127,2.222,0.301,3.426,0.398
				c3.179,0.258,6.51,0.412,9.996,0.412s6.818-0.154,9.996-0.412c1.207-0.098,2.276-0.271,3.435-0.399
				c1.887-0.208,3.807-0.395,5.56-0.669c1.353-0.211,2.537-0.471,3.806-0.712c1.388-0.263,2.826-0.505,4.108-0.794
				c1.308-0.295,2.43-0.605,3.622-0.915c1.042-0.271,2.134-0.53,3.083-0.804c0.16-0.046,0.365-0.09,0.522-0.137v24.712
				c-0.318,0.116-0.586,0.219-0.936,0.341c-0.304,0.106-0.612,0.212-0.939,0.321c-1.209,0.404-2.541,0.824-4.051,1.249l-0.412,0.108
				c-1.391,0.385-2.932,0.764-4.553,1.13c-0.439,0.099-0.882,0.197-1.336,0.293c-1.869,0.396-3.836,0.773-5.965,1.094l-0.28,0.036
				c-2.001,0.296-4.145,0.531-6.354,0.723c-0.592,0.052-1.191,0.099-1.796,0.141c-2.409,0.169-4.892,0.292-7.511,0.292
				c-2.59,0-5.052-0.123-7.443-0.293c-0.607-0.043-1.206-0.091-1.798-0.143c-2.144-0.189-4.223-0.419-6.177-0.707l-0.452-0.058
				c-2.107-0.32-4.064-0.695-5.922-1.088c-0.466-0.098-0.919-0.199-1.368-0.301c-1.606-0.363-3.134-0.737-4.519-1.118l-0.448-0.117
				c-1.548-0.434-2.925-0.865-4.161-1.276l-0.718-0.243c-0.426-0.146-0.745-0.269-1.126-0.407V52.42z M221.866,95.087
				c0.157,0.046,0.362,0.09,0.522,0.137c0.951,0.276,2.048,0.535,3.093,0.807c1.189,0.309,2.307,0.618,3.612,0.912
				c1.284,0.29,2.726,0.532,4.116,0.796c1.266,0.24,2.448,0.5,3.799,0.71c1.756,0.274,3.679,0.461,5.57,0.67
				c1.156,0.127,2.222,0.301,3.426,0.398c3.179,0.258,6.51,0.412,9.997,0.412s6.818-0.154,9.996-0.412
				c1.207-0.098,2.276-0.271,3.435-0.399c1.887-0.208,3.807-0.395,5.56-0.669c1.353-0.211,2.537-0.471,3.806-0.711
				c1.388-0.263,2.826-0.505,4.108-0.794c1.308-0.295,2.43-0.605,3.622-0.915c1.042-0.271,2.134-0.53,3.083-0.804
				c0.16-0.046,0.365-0.09,0.522-0.137v16.179c-0.318,0.116-0.586,0.219-0.936,0.341c-0.304,0.106-0.612,0.212-0.939,0.321
				c-1.209,0.404-2.541,0.824-4.05,1.249l-0.413,0.108c-1.391,0.385-2.932,0.764-4.553,1.13c-0.439,0.099-0.882,0.197-1.336,0.293
				c-1.869,0.396-3.836,0.773-5.965,1.094l-0.28,0.036c-2.001,0.296-4.145,0.531-6.354,0.723c-0.592,0.052-1.191,0.099-1.796,0.141
				c-2.408,0.169-4.892,0.292-7.511,0.292c-2.59,0-5.052-0.123-7.443-0.293c-0.607-0.043-1.206-0.091-1.798-0.143
				c-2.144-0.189-4.223-0.419-6.177-0.707l-0.452-0.058c-2.107-0.32-4.064-0.695-5.922-1.088c-0.466-0.098-0.919-0.199-1.368-0.301
				c-1.606-0.363-3.134-0.737-4.519-1.118l-0.448-0.117c-1.548-0.434-2.925-0.865-4.161-1.276l-0.718-0.243
				c-0.426-0.146-0.745-0.269-1.126-0.407V95.087z M290.134,129.22v27.899l-0.725,0.393c-9.925,6.601-21.495,10.301-33.408,10.683
				c-11.913-0.382-23.483-4.083-33.408-10.684l-0.725-0.393V129.22c0.157,0.046,0.362,0.09,0.522,0.137
				c0.951,0.276,2.048,0.535,3.093,0.807c1.189,0.309,2.307,0.618,3.612,0.912c1.284,0.29,2.726,0.532,4.116,0.796
				c1.266,0.24,2.448,0.499,3.799,0.71c1.756,0.274,3.679,0.461,5.57,0.67c1.156,0.127,2.222,0.301,3.426,0.398
				c3.179,0.258,6.51,0.412,9.996,0.412s6.818-0.154,9.996-0.412c1.207-0.098,2.276-0.271,3.435-0.399
				c1.887-0.208,3.807-0.395,5.56-0.669c1.353-0.211,2.537-0.471,3.806-0.712c1.388-0.263,2.826-0.505,4.108-0.794
				c1.308-0.295,2.43-0.605,3.622-0.915c1.042-0.271,2.134-0.53,3.083-0.804C289.771,129.31,289.976,129.267,290.134,129.22z
				 M68.267,458.329v25.6c-0.003,4.712-3.822,8.53-8.533,8.533H25.6c-4.711-0.003-8.53-3.822-8.533-8.533v-130.7
				c5.504,1.825,11.269,2.737,17.067,2.7c11.417,0.551,22.257-5.047,28.417-14.675c0.274,0.372,0.589,0.774,0.872,1.154
				c0.393,0.526,0.794,1.055,1.204,1.593c0.643,0.844,1.296,1.689,1.979,2.558c0.497,0.631,1.004,1.264,1.52,1.905
				c0.665,0.825,1.338,1.646,2.034,2.481c0.569,0.682,1.149,1.361,1.738,2.047c0.698,0.813,1.401,1.619,2.127,2.432
				c0.631,0.708,1.273,1.407,1.924,2.112c0.734,0.794,1.471,1.579,2.229,2.364c0.679,0.703,1.366,1.394,2.063,2.086
				c0.771,0.767,1.545,1.522,2.336,2.27c0.719,0.68,1.446,1.341,2.18,2.002c0.807,0.727,1.617,1.44,2.442,2.139
				c0.746,0.631,1.498,1.239,2.258,1.845c0.846,0.676,1.693,1.335,2.554,1.973c0.764,0.566,1.533,1.102,2.308,1.635
				c0.53,0.365,1.046,0.772,1.581,1.12C73.483,400.17,68.267,446.62,68.267,458.329z M99.83,356.704
				c-1.348-1.095-2.687-2.253-4.017-3.471c-0.37-0.34-0.733-0.704-1.102-1.052c-0.983-0.929-1.959-1.875-2.921-2.851
				c-0.504-0.511-1.002-1.031-1.5-1.552c-0.852-0.893-1.693-1.797-2.523-2.714c-0.452-0.499-0.907-0.996-1.353-1.499
				c-1.07-1.213-2.117-2.432-3.141-3.659c-0.193-0.23-0.392-0.461-0.582-0.692c-1.133-1.372-2.227-2.737-3.282-4.095
				c-0.355-0.455-0.694-0.903-1.041-1.354c-0.771-1.006-1.525-2.002-2.246-2.977c-0.307-0.415-0.613-0.829-0.909-1.236
				c-0.818-1.124-1.602-2.221-2.34-3.277l-0.41-0.58c-0.892-1.286-1.72-2.51-2.473-3.653l-0.063-0.097
				c3.116-3.087,6.967-5.329,11.19-6.515c4.259,6.895,8.119,14.028,11.562,21.365c0.211,0.459,0.429,0.921,0.634,1.376
				c1.283,2.834,2.404,5.578,3.415,8.261c0.362,0.97,0.693,1.923,1.019,2.874c0.77,2.217,1.466,4.393,2.041,6.5
				c0.096,0.36,0.152,0.697,0.243,1.053L99.83,356.704z M247.467,398.374c-0.676,5.97-22.685,59.955-76.8,59.955
				c-45.383,0-51.2-45.6-51.2-85.333c-0.033-3.193-0.274-6.38-0.721-9.542c-0.133-1.021-0.314-2.064-0.489-3.103
				c-0.401-2.356-0.919-4.765-1.54-7.218c-0.297-1.191-0.552-2.362-0.901-3.575c-0.896-3.084-1.945-6.239-3.177-9.479
				c-0.821-2.183-1.82-4.45-2.793-6.703c-0.513-1.175-1.016-2.347-1.57-3.543c-11.329-23.119-25.388-44.797-41.877-64.57
				c-26.992-33.742-49.333-66.258-49.333-122.667c0-37.958,21.775-59.733,59.733-59.733c57.167,0,79.725,36.642,88.333,60.358
				c-1.861,0.427-3.679,1.025-5.43,1.787c-0.587,0.25-1.154,0.605-1.739,0.895c-1.255,0.606-2.471,1.289-3.641,2.045
				c-0.68,0.449-1.32,0.982-1.983,1.49c-1.087,0.823-2.126,1.707-3.112,2.649c-0.662,0.638-1.284,1.326-1.914,2.032
				c-0.949,1.071-1.836,2.195-2.658,3.366c-0.576,0.814-1.129,1.637-1.657,2.521c-0.796,1.37-1.512,2.785-2.146,4.238
				c-0.43,0.954-0.875,1.873-1.247,2.894c-0.624,1.811-1.139,3.658-1.543,5.53c-0.225,0.969-0.521,1.858-0.693,2.877
				c-0.553,3.21-0.833,6.461-0.836,9.718c0,3.631,0.161,7.044,0.395,10.364c0.043,0.592,0.083,1.189,0.132,1.772
				c0.499,6.239,1.517,12.426,3.045,18.496c0.063,0.247,0.122,0.501,0.186,0.746c0.735,2.792,1.558,5.497,2.487,8.107
				c0.1,0.282,0.213,0.55,0.315,0.83c0.778,2.122,1.618,4.196,2.521,6.222c0.283,0.643,0.561,1.294,0.855,1.926
				c0.935,2.001,1.917,3.973,2.963,5.911c0.546,1.014,1.125,2.001,1.696,2.994c0.57,0.993,1.152,1.986,1.75,2.97
				c0.665,1.091,1.331,2.186,2.022,3.259c0.746,1.161,1.528,2.321,2.308,3.479c0.445,0.657,0.863,1.331,1.316,1.984l-6.411,3.207
				c-1.506-2.455-4.167-3.965-7.047-4c-2.264-0.001-4.435,0.897-6.035,2.498s-2.499,3.772-2.498,6.035v8.533
				c0,54.942,45.408,85.333,76.8,85.333c11.62-0.033,23.162,1.905,34.133,5.733V398.374z M168.769,268.286
				c1.334,1.757,2.695,3.541,4.081,5.351h0c2.575,3.375,5.267,6.892,8.058,10.608c6.46,8.971,12.177,18.456,17.092,28.358
				c4.472,9.404,10.057,18.237,16.636,26.31c-0.448-0.004-0.849-0.051-1.303-0.051c-20.608,0-56.783-21.075-59.567-63.075
				L168.769,268.286z M213.092,304.645c-5.332-10.699-11.531-20.945-18.533-30.633c-2.825-3.767-5.542-7.333-8.15-10.742
				c-4.009-5.243-7.604-10.022-10.958-14.673c-1.023-1.422-2.106-2.881-3.055-4.261c-1.819-2.64-3.52-5.243-5.096-7.847
				c-0.56-0.923-1.01-1.837-1.535-2.755c-1.065-1.869-2.121-3.738-3.055-5.642c-0.403-0.817-0.733-1.649-1.109-2.471
				c-0.947-2.086-1.846-4.197-2.631-6.379c-0.269-0.742-0.505-1.504-0.753-2.256c-0.768-2.342-1.445-4.755-2.024-7.263
				c-0.172-0.745-0.346-1.492-0.5-2.252c-0.534-2.628-0.944-5.393-1.271-8.259c-0.087-0.78-0.209-1.518-0.282-2.318
				c-0.336-3.66-0.538-7.493-0.538-11.632c0-21.258,13.458-25.6,17.067-25.6c13.552-0.173,26.9,3.308,38.642,10.076l0.033,0.024
				l5.008,2.708c12.429,8.042,26.849,12.471,41.65,12.792c14.801-0.321,29.221-4.749,41.65-12.791l5.008-2.708l0.033-0.024
				c11.742-6.768,25.09-10.249,38.642-10.076c3.608,0,17.067,4.342,17.067,25.6c0,4.139-0.202,7.972-0.539,11.632
				c-0.072,0.799-0.194,1.538-0.282,2.318c-0.328,2.866-0.738,5.632-1.272,8.259c-0.154,0.76-0.328,1.507-0.5,2.252
				c-0.579,2.508-1.257,4.921-2.024,7.263c-0.248,0.753-0.484,1.514-0.753,2.256c-0.785,2.182-1.684,4.292-2.631,6.379
				c-0.376,0.821-0.706,1.654-1.109,2.471c-0.933,1.904-1.99,3.773-3.055,5.642c-0.524,0.918-0.975,1.832-1.535,2.755
				c-1.577,2.604-3.277,5.208-5.096,7.847c-0.949,1.38-2.032,2.84-3.055,4.261c-3.354,4.651-6.949,9.43-10.958,14.673
				c-2.608,3.408-5.325,6.975-8.15,10.742c-7.003,9.689-13.201,19.934-18.533,30.633c-11.257,21.333-18.049,34.217-42.908,34.217
				C231.142,338.862,224.35,325.979,213.092,304.645z M358.234,275.787c-2.784,42-38.959,63.075-59.567,63.075
				c-0.454,0-0.854,0.047-1.303,0.051c6.578-8.073,12.164-16.906,16.636-26.31c4.915-9.903,10.631-19.387,17.092-28.358
				c2.792-3.716,5.483-7.233,8.058-10.608h0c1.388-1.815,2.749-3.599,4.081-5.351L358.234,275.787z M403.696,329.893
				L403.696,329.893c-0.529,1.143-1.011,2.265-1.502,3.39c-0.993,2.295-2.01,4.603-2.845,6.827
				c-1.225,3.223-2.267,6.361-3.159,9.429c-0.354,1.232-0.614,2.421-0.915,3.63c-0.615,2.438-1.13,4.831-1.529,7.171
				c-0.176,1.045-0.358,2.093-0.492,3.12c-0.447,3.16-0.687,6.345-0.72,9.536c0,39.733-5.817,85.333-51.2,85.333
				c-54.192,0-76.192-54.15-76.8-59.733v-36.958c10.969-3.835,22.513-5.766,34.133-5.709c31.392,0,76.8-30.392,76.8-85.333v-8.533
				c0.001-2.264-0.897-4.435-2.498-6.035s-3.772-2.499-6.035-2.498c-2.88,0.035-5.54,1.544-7.047,3.999l-6.411-3.207
				c0.433-0.624,0.832-1.268,1.257-1.895c0.802-1.188,1.602-2.377,2.367-3.568c0.691-1.073,1.357-2.167,2.022-3.259
				c0.598-0.983,1.179-1.976,1.751-2.97s1.15-1.98,1.696-2.994c1.046-1.938,2.028-3.91,2.963-5.911
				c0.294-0.632,0.572-1.283,0.855-1.926c0.899-2.029,1.739-4.103,2.521-6.222c0.102-0.28,0.215-0.548,0.315-0.83
				c0.93-2.61,1.759-5.313,2.488-8.109c0.064-0.243,0.122-0.493,0.184-0.738c1.528-6.072,2.547-12.26,3.046-18.502
				c0.049-0.583,0.09-1.18,0.132-1.772c0.234-3.319,0.395-6.732,0.395-10.363c-0.003-3.257-0.283-6.508-0.836-9.718
				c-0.172-1.016-0.468-1.904-0.692-2.87c-0.404-1.876-0.92-3.726-1.545-5.54c-0.372-1.019-0.817-1.935-1.245-2.888
				c-0.634-1.454-1.351-2.87-2.147-4.241c-0.528-0.884-1.081-1.707-1.657-2.521c-0.822-1.171-1.709-2.295-2.658-3.366
				c-0.63-0.706-1.252-1.393-1.914-2.032c-0.986-0.942-2.026-1.827-3.114-2.651c-0.662-0.507-1.302-1.039-1.98-1.488
				c-1.171-0.758-2.388-1.442-3.644-2.048c-0.583-0.289-1.151-0.644-1.736-0.894c-1.751-0.762-3.569-1.361-5.43-1.787
				c8.608-23.716,31.166-60.358,88.333-60.358c37.958,0,59.733,21.775,59.733,59.733c0,56.408-22.342,88.925-49.333,122.667
				C429.096,285.051,415.028,306.75,403.696,329.893z M411.966,356.871c0.09-0.35,0.144-0.682,0.239-1.035
				c0.583-2.138,1.287-4.345,2.071-6.596c0.313-0.911,0.63-1.824,0.976-2.752c1.025-2.721,2.16-5.505,3.465-8.383
				c0.182-0.404,0.375-0.815,0.563-1.221c3.454-7.368,7.328-14.531,11.604-21.455c4.224,1.188,8.075,3.432,11.193,6.519
				l-0.242,0.374c-0.658,0.995-1.367,2.044-2.129,3.148c-0.347,0.502-0.732,1.038-1.098,1.558c-0.523,0.742-1.056,1.491-1.617,2.265
				c-0.423,0.583-0.863,1.178-1.306,1.776c-0.59,0.796-1.203,1.606-1.827,2.422c-0.44,0.575-0.874,1.148-1.33,1.731
				c-0.948,1.213-1.927,2.434-2.936,3.663c-0.341,0.416-0.69,0.83-1.039,1.246c-0.958,1.146-1.938,2.287-2.939,3.423
				c-0.45,0.509-0.911,1.01-1.368,1.516c-0.84,0.927-1.691,1.842-2.554,2.745c-0.474,0.496-0.949,0.992-1.429,1.479
				c-1.034,1.049-2.08,2.069-3.14,3.061c-0.297,0.279-0.589,0.573-0.887,0.847c-1.352,1.241-2.717,2.418-4.093,3.532
				L411.966,356.871z M494.933,483.929c-0.003,4.712-3.822,8.53-8.533,8.533h-34.133c-4.711-0.003-8.53-3.822-8.533-8.533v-25.6
				c0-11.708-5.217-58.158-27.633-83.358c0.535-0.348,1.051-0.755,1.581-1.12c0.774-0.533,1.545-1.069,2.308-1.635
				c0.861-0.638,1.708-1.297,2.554-1.973c0.759-0.606,1.512-1.214,2.258-1.845c0.825-0.7,1.635-1.413,2.442-2.139
				c0.734-0.661,1.461-1.322,2.18-2.002c0.791-0.748,1.565-1.504,2.336-2.27c0.696-0.692,1.384-1.383,2.063-2.086
				c0.757-0.785,1.495-1.57,2.229-2.364c0.651-0.705,1.293-1.404,1.924-2.112c0.725-0.813,1.429-1.62,2.127-2.432
				c0.589-0.686,1.169-1.365,1.738-2.047c0.696-0.835,1.369-1.656,2.034-2.481c0.517-0.641,1.023-1.273,1.52-1.905
				c0.683-0.869,1.336-1.714,1.979-2.558c0.41-0.539,0.811-1.067,1.204-1.593c0.283-0.38,0.598-0.782,0.872-1.154
				c6.16,9.628,17,15.226,28.417,14.674c5.798,0.037,11.563-0.875,17.067-2.7V483.929z"/>
			<path d="M156.098,366.96c-1.601,1.601-2.499,3.772-2.498,6.035c0,17.958,2.492,59.733,25.6,59.733
				c29.433,0,42.667-19.958,42.667-34.133c0-23.575-30-34.133-59.733-34.133C159.87,364.461,157.699,365.359,156.098,366.96z
				 M204.8,398.595c0,3.6-4.333,17.025-25.5,17.067c-3.358-1.783-7.3-16.275-8.358-33.766
				C190.258,383.52,204.8,390.395,204.8,398.595z"/>
		</g>
	</g>
</g>
<g>
</g>
<g>
</g>
<g>
</g>
<g>
</g>
<g>
</g>
<g>
</g>
<g>
</g>
<g>
</g>
<g>
</g>
<g>
</g>
<g>
</g>
<g>
</g>
<g>
</g>
<g>
</g>
<g>
</g>
</svg>
