<svg width="748" height="420" viewBox="0 0 748 420" fill="none" xmlns="http://www.w3.org/2000/svg">
<rect x="372" y="368.694" width="138.586" height="25.1084" rx="12.5542" transform="rotate(-89.9609 372 368.694)" fill="url(#paint0_linear)"/>
<rect x="402.912" y="139.27" width="130.609" height="26.0581" rx="13.0291" transform="rotate(-42.5189 402.912 139.27)" fill="url(#paint1_linear)"/>
<circle cx="385" cy="191" r="70" fill="white"/>
<circle cx="385" cy="191" r="60" fill="url(#paint2_linear)"/>
<circle cx="385" cy="191" r="42" fill="white"/>
<path d="M82.176 189.344C84.112 186.528 86.4587 184.299 89.216 182.656C91.9733 181.013 94.936 180.192 98.104 180.192V198.584H93.264C89.5093 198.584 86.7227 199.317 84.904 200.784C83.0853 202.251 82.176 204.803 82.176 208.44V230H64.928V180.632H82.176V189.344ZM151.455 204.744C151.455 206.093 151.367 207.443 151.191 208.792H118.543C118.719 211.491 119.453 213.515 120.743 214.864C122.093 216.155 123.794 216.8 125.847 216.8C128.722 216.8 130.775 215.509 132.007 212.928H150.399C149.637 216.331 148.141 219.381 145.911 222.08C143.741 224.72 140.983 226.803 137.639 228.328C134.295 229.853 130.599 230.616 126.551 230.616C121.682 230.616 117.341 229.589 113.527 227.536C109.773 225.483 106.81 222.549 104.639 218.736C102.527 214.923 101.471 210.435 101.471 205.272C101.471 200.109 102.527 195.651 104.639 191.896C106.751 188.083 109.685 185.149 113.439 183.096C117.253 181.043 121.623 180.016 126.551 180.016C131.421 180.016 135.733 181.013 139.487 183.008C143.242 185.003 146.175 187.877 148.287 191.632C150.399 195.328 151.455 199.699 151.455 204.744ZM133.855 200.432C133.855 198.32 133.151 196.677 131.743 195.504C130.335 194.272 128.575 193.656 126.463 193.656C124.351 193.656 122.621 194.243 121.271 195.416C119.922 196.531 119.042 198.203 118.631 200.432H133.855ZM175.762 164.88V230H158.514V164.88H175.762ZM194.296 176.056C191.246 176.056 188.782 175.235 186.904 173.592C185.086 171.891 184.176 169.779 184.176 167.256C184.176 164.675 185.086 162.533 186.904 160.832C188.782 159.131 191.246 158.28 194.296 158.28C197.288 158.28 199.694 159.131 201.512 160.832C203.39 162.533 204.328 164.675 204.328 167.256C204.328 169.779 203.39 171.891 201.512 173.592C199.694 175.235 197.288 176.056 194.296 176.056ZM202.832 180.632V230H185.584V180.632H202.832ZM259.823 204.744C259.823 206.093 259.735 207.443 259.559 208.792H226.911C227.087 211.491 227.82 213.515 229.111 214.864C230.46 216.155 232.161 216.8 234.215 216.8C237.089 216.8 239.143 215.509 240.375 212.928H258.767C258.004 216.331 256.508 219.381 254.279 222.08C252.108 224.72 249.351 226.803 246.007 228.328C242.663 229.853 238.967 230.616 234.919 230.616C230.049 230.616 225.708 229.589 221.895 227.536C218.14 225.483 215.177 222.549 213.007 218.736C210.895 214.923 209.839 210.435 209.839 205.272C209.839 200.109 210.895 195.651 213.007 191.896C215.119 188.083 218.052 185.149 221.807 183.096C225.62 181.043 229.991 180.016 234.919 180.016C239.788 180.016 244.1 181.013 247.855 183.008C251.609 185.003 254.543 187.877 256.655 191.632C258.767 195.328 259.823 199.699 259.823 204.744ZM242.223 200.432C242.223 198.32 241.519 196.677 240.111 195.504C238.703 194.272 236.943 193.656 234.831 193.656C232.719 193.656 230.988 194.243 229.639 195.416C228.289 196.531 227.409 198.203 226.999 200.432H242.223ZM293.545 194.976H285.801V230H268.465V194.976H263.097V180.632H268.465V180.192C268.465 173.856 270.313 169.016 274.009 165.672C277.764 162.269 283.132 160.568 290.113 160.568C291.521 160.568 292.606 160.597 293.369 160.656V175.352C292.9 175.293 292.254 175.264 291.433 175.264C289.556 175.264 288.177 175.704 287.297 176.584C286.417 177.405 285.918 178.755 285.801 180.632H293.545V194.976Z" fill="#9E00FF"/>
<path d="M470.176 189.344C472.112 186.528 474.459 184.299 477.216 182.656C479.973 181.013 482.936 180.192 486.104 180.192V198.584H481.264C477.509 198.584 474.723 199.317 472.904 200.784C471.085 202.251 470.176 204.803 470.176 208.44V230H452.928V180.632H470.176V189.344ZM521.415 215.304V230H513.935C501.322 230 495.015 223.752 495.015 211.256V194.976H488.943V180.632H495.015V168.664H512.351V180.632H521.327V194.976H512.351V211.52C512.351 212.869 512.645 213.837 513.231 214.424C513.877 215.011 514.933 215.304 516.399 215.304H521.415ZM561.798 180.192C567.43 180.192 571.889 182.099 575.174 185.912C578.518 189.667 580.19 194.771 580.19 201.224V230H562.942V203.512C562.942 200.696 562.209 198.496 560.742 196.912C559.276 195.269 557.31 194.448 554.846 194.448C552.265 194.448 550.241 195.269 548.774 196.912C547.308 198.496 546.574 200.696 546.574 203.512V230H529.326V164.88H546.574V187.672C548.1 185.443 550.153 183.653 552.734 182.304C555.374 180.896 558.396 180.192 561.798 180.192ZM612.623 230.616C607.695 230.616 603.265 229.589 599.335 227.536C595.463 225.483 592.412 222.549 590.183 218.736C587.953 214.923 586.839 210.435 586.839 205.272C586.839 200.168 587.953 195.709 590.183 191.896C592.471 188.083 595.551 185.149 599.423 183.096C603.353 181.043 607.783 180.016 612.711 180.016C617.639 180.016 622.039 181.043 625.911 183.096C629.841 185.149 632.921 188.083 635.151 191.896C637.439 195.709 638.583 200.168 638.583 205.272C638.583 210.376 637.439 214.864 635.151 218.736C632.921 222.549 629.841 225.483 625.911 227.536C621.98 229.589 617.551 230.616 612.623 230.616ZM612.623 215.656C615.028 215.656 617.023 214.776 618.607 213.016C620.249 211.197 621.071 208.616 621.071 205.272C621.071 201.928 620.249 199.376 618.607 197.616C617.023 195.856 615.057 194.976 612.711 194.976C610.364 194.976 608.399 195.856 606.815 197.616C605.231 199.376 604.439 201.928 604.439 205.272C604.439 208.675 605.201 211.256 606.727 213.016C608.252 214.776 610.217 215.656 612.623 215.656Z" fill="#807A7A"/>
<defs>
<linearGradient id="paint0_linear" x1="499.677" y1="343.107" x2="363.227" y2="417.2" gradientUnits="userSpaceOnUse">
<stop stop-color="#FA00FF"/>
<stop offset="0.973958" stop-color="#07EAF8" stop-opacity="0.43"/>
<stop offset="1" stop-color="#F807C3"/>
</linearGradient>
<linearGradient id="paint1_linear" x1="468.216" y1="139.27" x2="468.216" y2="165.328" gradientUnits="userSpaceOnUse">
<stop stop-color="#FA00FF"/>
<stop offset="0.973958" stop-color="#07EAF8" stop-opacity="0.43"/>
<stop offset="1"/>
</linearGradient>
<linearGradient id="paint2_linear" x1="336.5" y1="168.5" x2="394.5" y2="191" gradientUnits="userSpaceOnUse">
<stop stop-color="#FA00FF"/>
<stop offset="0.973958" stop-color="#07EAF8" stop-opacity="0.43"/>
<stop offset="1" stop-color="#9E00FF"/>
</linearGradient>
</defs>
</svg>
