<svg fill="#f00" id="Layer_1" enable-background="new 0 0 511.79 511.79" height="512" viewBox="0 0 511.79 511.79" width="512" xmlns="http://www.w3.org/2000/svg"><g><path d="m462.727 87.299c-17.624-21.53-41.776-36.998-68.498-43.99.444-8.965-7.185-16.946-16.152-16.946h-20.101c-9.332 0-17.638 5.335-23.025 12.685h-13.826v-31.775c0-9.697-15-9.697-15 0l-.001 36.54c-30.919 18.741-69.542 18.739-100.46 0v-36.54c0-9.697-15-9.697-15 0v31.775h-39.799c-19.766 0-38.771 4.278-56.487 12.715-8.597 4.095-2.063 17.597 6.449 13.543 15.686-7.471 32.521-11.258 50.038-11.258h42.972c.063.044.119.096.183.138 18.796 12.46 40.331 18.69 61.875 18.688 21.537-.002 43.083-6.231 61.874-18.688.064-.043.12-.094.183-.138h4.586l-188.961 228.325v-108.301c0-9.697-15-9.697-15 0v43.901h-84.183v-47.516c0-31.975 12.708-61.789 35.783-83.949 6.994-6.716-3.397-17.538-10.39-10.819-26.048 25.015-40.394 58.671-40.394 94.768v55.016c0 4.142 3.358 7.5 7.5 7.5h4.812v53.393h-4.035c-4.142 0-7.5 3.358-7.5 7.5v141.685c-1.158 42.736 33.675 77.124 76.227 76.222h188.739c30.54 0 55.386-24.835 55.386-55.361s-24.846-55.361-55.386-55.361h-9.336c10.698-15.833-3.77-38.554-23.129-32.38l136.484-311.162c24.174 6.028 46.066 19.867 61.965 39.291 16.944 20.7 26.276 46.859 26.276 73.657v47.516h-84.184v-45.595c0-9.697-15-9.697-15 0v151.395c0 9.697 15 9.697 15 0v-90.8h71.871v271.3c0 9.697 15 9.697 15 0v-271.3h4.813c4.143 0 7.5-3.358 7.5-7.5v-55.016c0-30.252-10.536-59.785-29.669-83.158zm-427.557 214.067c16.602.213 33.354 0 50.01 0l-50.01 49.985zm0 70.808c.567-.324 1.104-.72 1.588-1.204l69.64-69.604h11.319v.172l-82.547 99.743zm11.536-139.201h71.872v53.393h-71.872zm185.183 183.078h26.741l-47.615 47.591zm53.247 80.722h-23.547l59.242-59.211c13.996 26.363-5.907 59.211-35.695 59.211zm26.258-70.988-71.023 70.987h-41.286l80.763-80.722c11.528-.323 22.541 2.013 31.546 9.735zm-48.86-41.593c1.698 1.205 4.134 3.81 1.364 7.712l-6.491 9.147h-14.424l11.323-15.955c3.094-4.359 7.712-1.271 8.228-.904zm116.586-341.147-197.271 449.748-3.982 3.98h-81.471c-33.76 0-61.227-27.464-61.227-61.222v-10.743l308.236-372.446c5.071-4.135 6.614-10.999 14.573-10.999h20.101c.969.167 1.316.727 1.041 1.682z"/><path d="m385.713 356.273c-4.143 0-7.5 3.358-7.5 7.5v140.5c0 9.697 15 9.697 15 0v-140.5c0-4.142-3.358-7.5-7.5-7.5z"/></g></svg>